<svg id="Layer_1" data-name="Layer 1" xmlns="http://www.w3.org/2000/svg" viewBox="0 0 300 140.07"><defs><style>.cls-1{fill:none;stroke:#f7931e;stroke-miterlimit:10;stroke-width:0.5px;}</style></defs><line class="cls-1" x1="300" y1="68.93" x2="210.17" y2="68.93"/><path class="cls-1" d="M41.41,51.69,40.25,66.07A28.21,28.21,0,0,1,62.1,82.18l-5.59-5.24-3.92-1.48a39.74,39.74,0,0,0,7.87,12.08A43.8,43.8,0,0,0,60.85,93H0" transform="translate(-0.01 -24.05)"/><path class="cls-1" d="M43.69,51.71,45.3,63.8s7.9,1.76,11.18,4.29,10.3,12.38,10.3,12.38h2.27A15.17,15.17,0,0,1,71,75.17a17.74,17.74,0,0,1,3.39-4.3A23.82,23.82,0,0,1,92,64.3s3.79-19.65,3.9-19.65-.11.78-.36,2.22c-1.77,10.11,0,21,0,21s-6.07-2-13.64,1.77a17.08,17.08,0,0,0-8.85,11.62l13.14-6.82s-1.71,8.26-4.55,9.6c-6.05,2.85-8.33,3.79-8.33,3.79s.18,2.39.5,5.18h110" transform="translate(-0.01 -24.05)"/><line class="cls-1" x1="193.07" y1="68.93" x2="188.96" y2="68.93"/><path class="cls-1" d="M43.69,51.71A29.18,29.18,0,0,1,71,75.17" transform="translate(-0.01 -24.05)"/><path class="cls-1" d="M15.8,93A29.18,29.18,0,0,1,41.41,51.69" transform="translate(-0.01 -24.05)"/><line class="cls-1" x1="193.07" y1="68.93" x2="188.96" y2="68.93"/><line class="cls-1" x1="300" y1="68.93" x2="210.17" y2="68.93"/><path class="cls-1" d="M183.84,93h-110a38.69,38.69,0,0,0,1.52,8c1.26,3,2.9.81,4.66-.13l10.43.13c1.52,1.08-.46,1.74,4.09,2s3.68-1.13,7.22-1.68,13.58-.7,16.17.31,9.66,6.38,12.12,8.91.32,34.48.06,35.75,3.1,5.43,3.35,6.5c.68,2.88-.63,11.12-.63,11.12l-3.35-.44L127.16,153l-6.45-10.24-.88-5.18-2.53-1.51-.5,5,7.58,11.62-4,9.35H116.8v-9.6l-11.51-15c-12.63.51-15.44-2.18-15.44-2.18l-3.43,25H82.69l1.72-22.77-2.76-.06L80.42,160.3H76l-.82-25.2s-8.5-5.2-11.88-25.26c-.48-2.84-.87-5.33-1.2-7.52-.62-4.09-1-7.13-1.25-9.34H0" transform="translate(-0.01 -24.05)"/><polyline class="cls-1" points="41.4 27.64 42.26 17.01 43.68 27.66"/><path class="cls-1" d="M192.61,102.93a13,13,0,0,1-.17-3.07c.07-.29,1-1.44.92-1.79s-.66-9.17,0-9.87a17,17,0,0,1,3.35-2.46,15.31,15.31,0,0,1,4.46-.08c1,.15.74.53,2,.46s.71-.25,1.13-.55l2.88,0c.48.26.94.88,1.28,0A19.94,19.94,0,0,0,209,82s-.63-.26-2.3-1c-.78-.37-1.25-2.65-1.25-2.65l3.62,1.88a4.72,4.72,0,0,0-2.44-3.21,5.27,5.27,0,0,0-3.76-.48,20.36,20.36,0,0,0,0-5.79c-.49-2.79,1,4.81,1,4.81a6.56,6.56,0,0,1,4.88,1.81,4.69,4.69,0,0,1,1.47,2.65h.62a24.89,24.89,0,0,1,2.85-3.41,10.45,10.45,0,0,1,3.08-1.19l.84-6.27.56,6.9a7.8,7.8,0,0,0-6,4.44L213.68,79l1.08-.41a11,11,0,0,1-2.17,3.34A40.39,40.39,0,0,1,211.8,88c-.93,5.53-3.27,7-3.27,7l-.23,7h-1.22l-.34-6.31-.76,0,.47,6.29h-1l-.94-6.91s-.78.74-4.26.6L197,99.79v2.65h-1L195,99.86l2.09-3.2-.14-1.4-.7.42L196,97.11l-1.78,2.82-.64,2.88Z" transform="translate(-0.01 -24.05)"/><path class="cls-1" d="M226.31,47.88l-3.09-.35V45.7l-1.95-3.2-3.66.11-1.14,1.49-1.72-1.6-1-2.06,1.95-.57.81-1.49L213,34.72v4.46l-3.55-1.26,1.72-.69V33.34L209,32.77l-2.64-3.55-1,2.29H202v-3l-3.66-.12-.92,2.63-2.06-.11-2.51-3.32-3.32,1.49-1.38-.81L185.9,30l.58-2.52-2.87-1.6-2.4,2.4.8-2.06-3.21-.45-.91,2.75L174.57,28l1.72-1.37-2.06-2.29h-2.87l-1.6,4.92-1-3.43-1.6,2.51-1.72-1L165,30.82l-1.71.12L161,28.65l-3.44-1.37L159.69,32h-2.63l2.06,1.71-1,3.89L156,36.2l-4.7,1.37-.8-3.09L150,38.61l-4.35-1.49,2.06,2.17.69,2.18h-2.75l1.72,1.26h1.6l1.14,2.4-2.74-.57.57,4.8.69,2.18,2.4-2.18.46,2.18.91,2.17-2.17.23.69,1.15.91,1.94,1.49-.68,3.89,2.94,3.43,1.07V58.53l1.84-3.33V53L164.5,55l13.16,1.26,2.86,3.06.57,5-3.2,4-3-1L174,63.56v3.78l11.22,10.87v6.18l-1.38,2.29v19.69l7,.8-.45-7.44-1.49-3.32L189,93l.36-14.65-1-3.67.23-11.33,1.6-2.63.23-2.64,3-3.43,3.9-1.83,4.57,3.09L199.52,52h1.38L203,53.71l.11,1.72,3,.35,3.89,1.94-1.6-3.78,2.28-.8,1.84,4.13,4.81.79a36.78,36.78,0,0,0-1.19-4.25c.94.9,3.48,2.88,3.48,2.88l-1.5-5.95,2.07,3.89,1-2.4,1.6,3.09.46-2.18,2.29-1.37-2.75-1.26Zm-55.52,5.38-1.94-3.67,3.89,2.64ZM174,48.91h-1.61l-1.6-2.52V45h2L174,46.62Zm5.38,5.27.46-2,2.86,3.32-.52,2.57h-.63Zm5.15,20.25-4.69-3.66V68.94l2.34-2.64,2.35,4.07Zm0-13.16-1.26.8v-2l1.26-3.54.69-2.4,1.37,2.51v2.6Zm3.43-.46-1.6,2.29v1.37h-1.14V63.1Z" transform="translate(-0.01 -24.05)"/></svg>