<svg id="Layer_1" data-name="Layer 1" xmlns="http://www.w3.org/2000/svg" xmlns:xlink="http://www.w3.org/1999/xlink" viewBox="0 0 300 300"><defs><style>.cls-1{fill:url(#linear-gradient);}.cls-2{fill:#f7931e;}.cls-3{fill:url(#linear-gradient-2);}</style><linearGradient id="linear-gradient" x1="148.87" y1="-0.31" x2="151.13" y2="93.15" gradientUnits="userSpaceOnUse"><stop offset="0" stop-color="#c1272d"/><stop offset="0.28" stop-color="#ca302b"/><stop offset="0.75" stop-color="#e24a27"/><stop offset="0.99" stop-color="#f15a24"/></linearGradient><linearGradient id="linear-gradient-2" x1="149.67" y1="37.95" x2="150.3" y2="337.95" gradientUnits="userSpaceOnUse"><stop offset="0"/><stop offset="0.23" stop-color="#090502"/><stop offset="0.62" stop-color="#231106"/><stop offset="0.99" stop-color="#42210b"/></linearGradient></defs><rect class="cls-1" width="300" height="92.73"/><circle class="cls-2" cx="42.33" cy="80.6" r="29.18"/><rect class="cls-3" y="92.73" width="300" height="207.27"/><path d="M132.83,163.59s1.31-8.24.63-11.12c-.25-1.07-3.6-5.24-3.35-6.5s2.4-33.22-.06-35.75-9.67-8-12.13-8.9-12.63-.87-16.17-.32-2.67,1.93-7.22,1.68-2.57-.92-4.08-2L80,100.55c-1.77.94-3.4,3.17-4.67.13s-2-13.13-2-13.13,2.29-.94,8.34-3.79c2.83-1.34,4.55-9.6,4.55-9.6L73.08,81a17,17,0,0,1,8.84-11.62c7.58-3.79,13.64-1.77,13.64-1.77s-1.77-10.86,0-21S92,64.05,92,64.05a23.85,23.85,0,0,0-17.69,6.57,17,17,0,0,0-5.3,9.6H66.76s-7-9.85-10.29-12.38-11.18-4.29-11.18-4.29l-3-22.74-2,25A28.22,28.22,0,0,1,62.09,81.93l-5.6-5.24-3.91-1.48a39.5,39.5,0,0,0,7.87,12.08s-.19,4.3,2.84,22.3c3.38,20.06,11.87,25.26,11.87,25.26l.82,25.2h4.43l1.22-22.83,2.76.06-1.71,22.77h3.73l3.42-25s2.81,2.69,15.44,2.18l11.51,15v9.6h3.54l4-9.35-7.58-11.62.51-5,2.53,1.52.88,5.17,6.44,10.24,2.34,10.42Z"/><path d="M192.59,102.69a13.06,13.06,0,0,1-.17-3.07c.07-.3,1-1.45.92-1.8s-.66-9.17,0-9.86a16.27,16.27,0,0,1,3.35-2.46,15.29,15.29,0,0,1,4.46-.09c1,.15.74.53,2,.46s.71-.25,1.13-.55l2.88,0c.49.26.94.87,1.29,0A20.5,20.5,0,0,0,209,81.7s-.63-.26-2.3-1c-.78-.37-1.25-2.65-1.25-2.65l3.62,1.89a4.67,4.67,0,0,0-2.44-3.21,5.24,5.24,0,0,0-3.76-.49,20,20,0,0,0,0-5.79c-.49-2.79,1,4.81,1,4.81A6.63,6.63,0,0,1,208.74,77a4.71,4.71,0,0,1,1.46,2.65h.63a25.17,25.17,0,0,1,2.84-3.42,10.33,10.33,0,0,1,3.08-1.18l.84-6.28.56,6.9a7.77,7.77,0,0,0-6,4.45l1.54-1.45,1.08-.41a10.86,10.86,0,0,1-2.17,3.34,40.76,40.76,0,0,1-.78,6.15c-.94,5.54-3.28,7-3.28,7l-.23,7h-1.22l-.34-6.3H206l.47,6.29h-1l-.95-6.9s-.78.74-4.26.6L197,99.55v2.65h-1l-1.12-2.58L197,96.41,196.88,95l-.7.41-.24,1.43-1.78,2.83-.64,2.87Z"/><path d="M226.29,47.63l-3.09-.35V45.45l-1.94-3.2-3.67.11-1.14,1.49-1.72-1.6-1-2.06,2-.57.8-1.49L213,34.47v4.46l-3.55-1.26,1.72-.68v-3.9L209,32.52,206.38,29l-1,2.29H202v-3l-3.67-.12-.91,2.63-2.06-.11-2.52-3.32-3.32,1.49-1.37-.8-2.29,1.71.57-2.52-2.86-1.6-2.4,2.41L182,26l-3.21-.45-.91,2.75-3.33-.58,1.72-1.37-2.06-2.29h-2.86L169.75,29l-1-3.43-1.61,2.52-1.71-1-.46,3.54-1.72.12-2.29-2.29L157.5,27l2.17,4.69H157l2.06,1.71-1,3.9L156,36l-4.69,1.38-.8-3.09L150,38.36l-4.35-1.49L147.66,39l.68,2.18H145.6l1.71,1.26h1.6l1.15,2.4-2.75-.57.58,4.8.68,2.18L151,49.11l.45,2.18.92,2.17-2.18.24.69,1.14.92,1.95,1.48-.69,3.9,2.94,3.43,1.07V58.28L162.42,55V52.78l2.06,1.94L177.65,56,180.51,59l.57,5-3.2,4-3-1L174,63.31v3.78L185.2,78v6.18l-1.37,2.29v19.69l7,.8-.46-7.44-1.49-3.32.46-18.08-1-3.66.23-11.34,1.6-2.63.23-2.64,3-3.43,3.89-1.83,4.58,3.09-2.29-3.89h1.37l2.06,1.71.12,1.72,3,.35,3.9,1.94-1.61-3.77,2.29-.81L212.45,57l4.8.79a36.15,36.15,0,0,0-1.18-4.25c.93.9,3.47,2.88,3.47,2.88l-1.49-5.95,2.06,3.89,1-2.4,1.59,3.09.46-2.18,2.29-1.37-2.75-1.26ZM170.78,53l-1.95-3.66L172.72,52Zm3.2-4.35h-1.6l-1.6-2.52V44.77h1.94l1.26,1.6Zm5.38,5.27.46-2,2.86,3.32-.51,2.57h-.63Zm5.15,20.25-4.69-3.66V68.69l2.35-2.63,2.34,4.06Zm0-13.16-1.26.8V59.88l1.26-3.55.69-2.4,1.37,2.51V59Zm1.84,1.83v1.38H185.2V62.85L188,60.56Z"/></svg>