<svg id="Layer_1" data-name="Layer 1" xmlns="http://www.w3.org/2000/svg" viewBox="0 0 50 50"><defs><style>.cls-1{fill:#f7931e;}.cls-2{fill:#c1272d;}.cls-3{fill:none;stroke:#f7931e;stroke-miterlimit:10;stroke-width:0.12px;}</style></defs><path d="M0,0H25A25,25,0,0,1,50,25v0A25,25,0,0,1,25,50h0A25,25,0,0,1,0,25V0A0,0,0,0,1,0,0Z" transform="translate(50 50) rotate(-180)"/><path class="cls-1" d="M40.6,14.05c0-.07,0-.14,0-.21L40.53,13l-.23.86h0a27.88,27.88,0,0,1-3.21,2.64,9.15,9.15,0,0,0-1.7,1.5,9.72,9.72,0,0,0-.78,1,6.55,6.55,0,0,0-.67,1.14,5.39,5.39,0,0,0-.25.6,5.68,5.68,0,0,0-.16.62c-.08.39-.14.78-.19,1.16l-.27,2.23a8.86,8.86,0,0,1-.17,1.07,7.58,7.58,0,0,1-.36,1c-.14.35-.29.69-.44,1l-.23.51-.12.26-.06.12,0,.07v0h0a.19.19,0,0,0,0,.08.2.2,0,0,0,.07.14.39.39,0,0,0,.11,0,.17.17,0,0,0,.1-.08h0l0,0,0-.06.07-.12.15-.24.29-.48,0,0,.63-.94c.22-.31.45-.62.69-.91s.26-.28.39-.4.31-.19.47-.29c.67-.37,1.36-.73,2-1.15a9.16,9.16,0,0,0,1.81-1.48,6.05,6.05,0,0,0,.7-1,5.28,5.28,0,0,0,.27-.53l.21-.54a14.83,14.83,0,0,0,.62-2.26,19,19,0,0,0,.31-4C40.62,14.35,40.61,14.2,40.6,14.05ZM40,18.43a13.75,13.75,0,0,1-.6,2.2,5.33,5.33,0,0,1-1.13,1.94A8.72,8.72,0,0,1,36.54,24c-.65.41-1.32.76-2,1.14a3.57,3.57,0,0,0-.51.32,4.36,4.36,0,0,0-.43.43l0,0h0c.13-.38.22-.75.31-1.13.16-.74.29-1.48.46-2.19a8.21,8.21,0,0,1,.3-1,2.74,2.74,0,0,1,.46-.84,4.77,4.77,0,0,1,1.62-1.12,8.58,8.58,0,0,0,1.87-1.22,5.92,5.92,0,0,0,1.56-2c.06-.13.11-.25.16-.38A19.66,19.66,0,0,1,40,18.43Z" transform="translate(0 0)"/><path class="cls-1" d="M41.86,12.86v-.1l-.09,0a2.24,2.24,0,0,0-1.74.12l-.2.13c-3.37,2.26-5.55,4.64-6.48,7.1a20.06,20.06,0,0,1-2.65,5.13,14.15,14.15,0,0,1,.89-5.1c.54-1.58,1.15-3,1.69-4.27.32-.75.62-1.46.88-2.12a14.32,14.32,0,0,0,.59-1.84,18.51,18.51,0,0,0,0-6.29,5.54,5.54,0,0,0-3.8-3.46c-3-.65-4.21.88-4.25,1l-.25.3.39-.07s2.37-.45,3.36,0A5.9,5.9,0,0,1,32.06,5l.29.34c.46.52,1,3.75-1.18,7.15a36.86,36.86,0,0,0-2.86,5.14L27.7,19a17.66,17.66,0,0,0-1.21,5.87l-1.39-.23v0l-.1,0-.1,0v0l-1.39.23A17.66,17.66,0,0,0,22.3,19l-.61-1.3a36.86,36.86,0,0,0-2.86-5.14c-2.16-3.4-1.64-6.63-1.18-7.15L17.94,5a5.9,5.9,0,0,1,1.9-1.66c1-.5,3.34-.06,3.36,0l.39.07-.25-.3c0-.07-1.29-1.6-4.25-1a5.54,5.54,0,0,0-3.8,3.46,18.51,18.51,0,0,0,0,6.29,14.32,14.32,0,0,0,.59,1.84c.26.66.56,1.37.88,2.12.54,1.27,1.15,2.69,1.69,4.27a14.15,14.15,0,0,1,.89,5.1,20.06,20.06,0,0,1-2.65-5.13c-.93-2.46-3.11-4.84-6.48-7.1l-.2-.13a2.24,2.24,0,0,0-1.74-.12l-.09,0v.1a25.24,25.24,0,0,0,1.19,8,7.81,7.81,0,0,0,4.27,4.52,3.56,3.56,0,0,1,1.3.89c.87,1.36,3.21,5.32,3.3,6.18A4.79,4.79,0,0,0,19,34.21a3.69,3.69,0,0,1,.59,1.2c0,.05.17,4.18,1.3,6.51.71,1.46.8,1.51,1,1.46,0,0,.05,0,.14.08s.09.12,0,.3a1.2,1.2,0,0,0-.11,1.33c.55,1.35,1.38,2.94,2.24,2.94h0l.8,0,.8,0h0c.86,0,1.69-1.59,2.24-2.94A1.2,1.2,0,0,0,28,43.76c-.11-.18-.12-.2,0-.3s.12-.08.14-.08c.23,0,.32,0,1-1.46,1.13-2.33,1.3-6.46,1.3-6.51a3.69,3.69,0,0,1,.59-1.2,4.79,4.79,0,0,0,.81-1.73c.09-.86,2.43-4.82,3.3-6.18a3.56,3.56,0,0,1,1.3-.89,7.81,7.81,0,0,0,4.27-4.52A25.24,25.24,0,0,0,41.86,12.86ZM18.7,20c-.55-1.59-1.16-3-1.7-4.29a26.28,26.28,0,0,1-1.46-3.91,12,12,0,0,1-.26-2.64,21.63,21.63,0,0,1,.3-3.53,5.31,5.31,0,0,1,3.57-3.24,4.36,4.36,0,0,1,3.62.53,6.37,6.37,0,0,0-3.06.16,6,6,0,0,0-2,1.73l-.29.34c-.51.57-1.12,3.92,1.15,7.49a36.87,36.87,0,0,1,2.84,5.11c.19.4.38.82.62,1.31A18.12,18.12,0,0,1,23.23,25v.17l1.56-.26h0v0l.08.09v.23l.1-.12.1.12V25l.08-.09v0h0l1.56.26V25A18.12,18.12,0,0,1,28,19.08c.24-.49.43-.91.62-1.31a36.87,36.87,0,0,1,2.84-5.11c2.27-3.57,1.66-6.92,1.15-7.49l-.29-.34a6,6,0,0,0-2-1.73,6.37,6.37,0,0,0-3.06-.16,4.36,4.36,0,0,1,3.62-.53,5.31,5.31,0,0,1,3.57,3.24,21.63,21.63,0,0,1,.3,3.53,12,12,0,0,1-.26,2.64A26.28,26.28,0,0,1,33,15.73c-.54,1.27-1.15,2.7-1.7,4.29a12.79,12.79,0,0,0-.87,5.56l-.22,1.15-.47.92-1.18-.09-.42-.76-1.22-.21-.43-.46-.76,0,0,1,1,.34a2.09,2.09,0,0,1,1.49,1.72c.07.73-.56,1.62-1.87,2.66-.68.54-1,.57-1.13.54l-.07,0h-.42l-.07,0c-.13,0-.45,0-1.13-.54-1.31-1-1.94-1.93-1.87-2.66a2.09,2.09,0,0,1,1.49-1.72l1-.34,0-1-.76,0-.43.46-1.22.21-.42.76-1.18.09-.47-.92-.22-1.15A12.79,12.79,0,0,0,18.7,20Zm21.69.78a7.4,7.4,0,0,1-4.13,4.35,3.9,3.9,0,0,0-1.41,1c-.68,1.06-3.24,5.32-3.34,6.31a4.69,4.69,0,0,1-.77,1.61l-.18.3a6.36,6.36,0,0,0,.49-1.1,6.75,6.75,0,0,0,.24-.8,3.3,3.3,0,0,0,.1-.85c0-.29-.06-.56-.08-.84s0-.29,0-.43a1.47,1.47,0,0,1,0-.21v-.19h0l0-.07a.43.43,0,0,0-.18-.2.43.43,0,0,0-.22-.07.48.48,0,0,0-.37.18.41.41,0,0,0,0,.09l0,.05h0v0l0,0-.05.09-.09.17-.2.34c-.13.23-.26.45-.39.65l-.09.11s0,0,0,0h0a0,0,0,0,0,0,0,.11.11,0,0,0,0,.05l-.19.32c-.13.22-.28.44-.42.66s-.3.46-.45.71a3,3,0,0,0-.22.4,1.69,1.69,0,0,0-.1.27l-.05.22c-.11.57-.16,1.08-.22,1.61-.1,1.06-.19,2.11-.31,3.16a22.61,22.61,0,0,1-.5,3.09h0l.28.09q.27-.78.57-1.53c.1-.25.2-.5.31-.75l.08-.18c0-.07.06-.14.08-.2s.08-.28.11-.41c.1-.54.17-1.08.24-1.62l.1-.81c0-.14,0-.27.07-.4a1,1,0,0,1,.1-.36,1.7,1.7,0,0,1,.61-.46,2.58,2.58,0,0,0,.69-.49,3.62,3.62,0,0,0,.22-.32,2.43,2.43,0,0,0-.4,1,20.08,20.08,0,0,1-1.27,6.38,8.25,8.25,0,0,1-.72,1.31.4.4,0,0,0-.39.15c-.28.27-.14.49,0,.67A.94.94,0,0,1,27.79,45c-.71,1.74-1.45,2.79-2,2.76l-.66,0v-.81A3.43,3.43,0,0,1,26,47c.26.08.67-.35.28-.43s-.56,0-.79,0-.15-.4,0-.43a3.26,3.26,0,0,1,.87,0c.41.05.55-.42.52-.75s-.72-.2-1.09-.29a.31.31,0,0,1,0-.61,2.38,2.38,0,0,0,1.31-.62.64.64,0,0,0,0-.88c-.2-.22-.67.13-.67.13s-.41.57-.66.27a.91.91,0,0,0-.67-.24v0h-.32v0a.91.91,0,0,0-.67.24c-.25.3-.66-.27-.66-.27s-.47-.35-.67-.13a.64.64,0,0,0,0,.88,2.38,2.38,0,0,0,1.31.62.31.31,0,0,1,0,.61c-.37.09-1.06,0-1.09.29s.11.8.52.75a3.26,3.26,0,0,1,.87,0c.16,0,.25.39,0,.43s-.4-.06-.79,0,0,.51.28.43a3.43,3.43,0,0,1,.86,0v.81l-.66,0c-.53,0-1.27-1-2-2.76a.94.94,0,0,1,.08-1.06c.12-.18.26-.4,0-.67a.4.4,0,0,0-.39-.15,8.25,8.25,0,0,1-.72-1.31,20.08,20.08,0,0,1-1.27-6.38,2.43,2.43,0,0,0-.4-1,3.62,3.62,0,0,0,.22.32,2.58,2.58,0,0,0,.69.49,1.7,1.7,0,0,1,.61.46,1,1,0,0,1,.1.36c0,.13.05.26.07.4l.1.81c.07.54.14,1.08.24,1.62,0,.13.07.27.11.41s.05.13.08.2l.08.18c.11.25.21.5.31.75q.3.75.57,1.53l.28-.09h0a22.61,22.61,0,0,1-.5-3.09c-.12-1.05-.21-2.1-.31-3.16-.06-.53-.11-1-.22-1.61l-.05-.22a1.69,1.69,0,0,0-.1-.27,3,3,0,0,0-.22-.4c-.15-.25-.3-.48-.45-.71s-.29-.44-.42-.66l-.19-.32a.11.11,0,0,0,0-.05,0,0,0,0,0,0,0h0s0,0,0,0l-.09-.11c-.13-.2-.26-.42-.39-.65l-.2-.34-.09-.17L19.62,30l0,0v0h0l0-.05a.41.41,0,0,0,0-.09.48.48,0,0,0-.37-.18.43.43,0,0,0-.22.07.43.43,0,0,0-.18.2l0,.07h0v.19a1.47,1.47,0,0,1,0,.21c0,.14,0,.28,0,.43s-.06.55-.08.84a3.3,3.3,0,0,0,.1.85,6.75,6.75,0,0,0,.24.8,6.36,6.36,0,0,0,.49,1.1l-.18-.3a4.69,4.69,0,0,1-.77-1.61c-.1-1-2.66-5.25-3.34-6.31a3.9,3.9,0,0,0-1.41-1A7.4,7.4,0,0,1,9.61,20.8,24.8,24.8,0,0,1,8.43,13a1.89,1.89,0,0,1,1.38.1l.21.15c3.32,2.21,5.46,4.55,6.36,7a18.34,18.34,0,0,0,2.91,5.47l.23,1.19L20.09,28l1.53-.11.43-.78,1.18-.2.41-.44H24l0,.51-.83.27a2.35,2.35,0,0,0-1.68,2c-.09.83.57,1.81,2,2.92a2.3,2.3,0,0,0,1.23.61.47.47,0,0,0,.17,0h.38a.47.47,0,0,0,.17,0,2.3,2.3,0,0,0,1.23-.61c1.4-1.11,2.06-2.09,2-2.92a2.35,2.35,0,0,0-1.68-2l-.83-.27,0-.51h.33l.41.44,1.18.2.43.78,1.53.11.57-1.11.23-1.19a18.34,18.34,0,0,0,2.91-5.47c.9-2.4,3-4.74,6.36-6.95l.21-.15a1.89,1.89,0,0,1,1.38-.1A24.8,24.8,0,0,1,40.39,20.8ZM29.29,34a.67.67,0,0,1,.07.77.44.44,0,0,1-.61,0Zm-8.58,0,.54.78a.44.44,0,0,1-.61,0A.67.67,0,0,1,20.71,34Z" transform="translate(0 0)"/><path class="cls-1" d="M18.35,28.76v0l0-.07-.06-.12-.12-.26-.23-.51c-.15-.34-.3-.68-.44-1a7.58,7.58,0,0,1-.36-1,8.86,8.86,0,0,1-.17-1.07l-.27-2.23c-.05-.38-.11-.77-.19-1.16a5.68,5.68,0,0,0-.16-.62,5.39,5.39,0,0,0-.25-.6,6.55,6.55,0,0,0-.67-1.14,9.72,9.72,0,0,0-.78-1,9.15,9.15,0,0,0-1.7-1.5A27.88,27.88,0,0,1,9.7,13.81h0L9.47,13l-.06.89c0,.07,0,.14,0,.21s0,.3,0,.44a19,19,0,0,0,.31,4,14.83,14.83,0,0,0,.62,2.26l.21.54a5.28,5.28,0,0,0,.27.53,6.05,6.05,0,0,0,.7,1,9.16,9.16,0,0,0,1.81,1.48c.66.42,1.35.78,2,1.15.16.1.34.19.47.29s.26.26.39.4.47.6.69.91l.63.94,0,0,.29.48.15.24.07.12,0,.06,0,0h0a.17.17,0,0,0,.1.08.39.39,0,0,0,.11,0,.2.2,0,0,0,.07-.14.19.19,0,0,0,0-.08Zm-2-2.86a4.36,4.36,0,0,0-.43-.43,3.57,3.57,0,0,0-.51-.32c-.68-.38-1.35-.73-2-1.14a8.72,8.72,0,0,1-1.75-1.44,5.33,5.33,0,0,1-1.13-1.94,13.75,13.75,0,0,1-.6-2.2A19.66,19.66,0,0,1,9.69,16c.05.13.1.25.16.38a5.92,5.92,0,0,0,1.56,2,8.58,8.58,0,0,0,1.87,1.22,4.77,4.77,0,0,1,1.62,1.12,2.74,2.74,0,0,1,.46.84,8.21,8.21,0,0,1,.3,1c.17.71.3,1.45.46,2.19.09.38.18.75.31,1.13h0Z" transform="translate(0 0)"/><path class="cls-1" d="M31.27,30.19h0M27.05,41.86h0l.28.09q.27-.78.57-1.53c.1-.25.2-.5.31-.75l.08-.18c0-.07.06-.14.08-.2s.08-.28.11-.41c.1-.54.17-1.08.24-1.62l.1-.81c0-.14,0-.27.07-.4a1,1,0,0,1,.1-.36,1.7,1.7,0,0,1,.61-.46,2.58,2.58,0,0,0,.69-.49,5.12,5.12,0,0,0,.76-1.49,6.75,6.75,0,0,0,.24-.8,3.3,3.3,0,0,0,.1-.85c0-.29-.06-.56-.08-.84a3.22,3.22,0,0,1,0-.43,1.47,1.47,0,0,1,0-.21v-.19h0l0-.07a.43.43,0,0,0-.18-.2.43.43,0,0,0-.22-.07.48.48,0,0,0-.37.18.41.41,0,0,0,0,.09l0,.05h0v0l0,0-.05.09-.09.17-.2.34c-.13.23-.26.45-.39.65l-.09.11s0,0,0,0h0a0,0,0,0,0,0,0,.11.11,0,0,0,0,.05l-.19.32c-.13.22-.28.44-.42.66s-.3.46-.45.71a3,3,0,0,0-.22.4,1.69,1.69,0,0,0-.1.27l-.05.22c-.11.57-.16,1.08-.22,1.61-.1,1.06-.19,2.11-.31,3.16A22.61,22.61,0,0,1,27.05,41.86Zm1.7-7.08.54-.78a.67.67,0,0,1,.07.77A.44.44,0,0,1,28.75,34.78Z" transform="translate(0 0)"/><path d="M28.34,35.05c.37.3,1.05.06,1.51-.52s1.41-2.4,1-2.69Zm.41-.27,1-1.48c.2.16-.28,1.3-.41,1.47A.44.44,0,0,1,28.75,34.78Z" transform="translate(0 0)"/><path class="cls-1" d="M18.73,30.2h0m3.72,8.58c-.12-1.05-.21-2.1-.31-3.16-.06-.53-.11-1-.22-1.61l-.05-.22a1.69,1.69,0,0,0-.1-.27,3,3,0,0,0-.22-.4c-.15-.25-.3-.48-.45-.71s-.29-.44-.42-.66l-.19-.32a.11.11,0,0,0,0-.05,0,0,0,0,0,0,0h0s0,0,0,0l-.09-.11c-.13-.2-.26-.42-.39-.65l-.2-.34-.09-.17L19.62,30l0,0v0h0l0-.05a.41.41,0,0,0,0-.09.48.48,0,0,0-.37-.18.43.43,0,0,0-.22.07.43.43,0,0,0-.18.2l0,.07h0v.19a1.47,1.47,0,0,1,0,.21,3.22,3.22,0,0,1,0,.43c0,.28-.06.55-.08.84a3.3,3.3,0,0,0,.1.85,6.75,6.75,0,0,0,.24.8,5.12,5.12,0,0,0,.76,1.49,2.58,2.58,0,0,0,.69.49,1.7,1.7,0,0,1,.61.46,1,1,0,0,1,.1.36c0,.13.05.26.07.4l.1.81c.07.54.14,1.08.24,1.62,0,.13.07.27.11.41s.05.13.08.2l.08.18c.11.25.21.5.31.75q.3.75.57,1.53l.28-.09h0A22.61,22.61,0,0,1,22.45,38.77Zm-1.81-4a.67.67,0,0,1,.07-.77l.54.78A.44.44,0,0,1,20.64,34.77Z" transform="translate(0 0)"/><path class="cls-1" d="M31.27,30.19h0M27.05,41.86h0l.28.09q.27-.78.57-1.53c.1-.25.2-.5.31-.75l.08-.18c0-.07.06-.14.08-.2s.08-.28.11-.41c.1-.54.17-1.08.24-1.62l.1-.81c0-.14,0-.27.07-.4a1,1,0,0,1,.1-.36,1.7,1.7,0,0,1,.61-.46,2.58,2.58,0,0,0,.69-.49,5.12,5.12,0,0,0,.76-1.49,6.75,6.75,0,0,0,.24-.8,3.3,3.3,0,0,0,.1-.85c0-.29-.06-.56-.08-.84a3.22,3.22,0,0,1,0-.43,1.47,1.47,0,0,1,0-.21v-.19h0l0-.07a.43.43,0,0,0-.18-.2.43.43,0,0,0-.22-.07.48.48,0,0,0-.37.18.41.41,0,0,0,0,.09l0,.05h0v0l0,0-.05.09-.09.17-.2.34c-.13.23-.26.45-.39.65l-.09.11s0,0,0,0h0a0,0,0,0,0,0,0,.11.11,0,0,0,0,.05l-.19.32c-.13.22-.28.44-.42.66s-.3.46-.45.71a3,3,0,0,0-.22.4,1.69,1.69,0,0,0-.1.27l-.05.22c-.11.57-.16,1.08-.22,1.61-.1,1.06-.19,2.11-.31,3.16A22.61,22.61,0,0,1,27.05,41.86Zm1.7-7.08.54-.78a.67.67,0,0,1,.07.77A.44.44,0,0,1,28.75,34.78Z" transform="translate(0 0)"/><path d="M28.34,35.05c.37.3,1.05.06,1.51-.52s1.41-2.4,1-2.69Zm.41-.27,1-1.48c.2.16-.28,1.3-.41,1.47A.44.44,0,0,1,28.75,34.78Z" transform="translate(0 0)"/><path d="M19.11,31.84c-.37.29.57,2.11,1,2.69s1.14.82,1.51.52Zm1.53,2.93c-.13-.17-.61-1.31-.41-1.47l1,1.48A.44.44,0,0,1,20.64,34.77Z" transform="translate(0 0)"/><path class="cls-2" d="M25.83,31.09a.3.3,0,0,1-.09-.1l-1.52-2.28V31a.11.11,0,0,1,0,.08.12.12,0,0,1-.09,0h-.19a.1.1,0,0,1-.09,0,.09.09,0,0,1,0-.08V28a.11.11,0,0,1,0-.09.13.13,0,0,1,.09,0h.16a.15.15,0,0,1,.1,0l.09.1,1.52,2.29V28a.14.14,0,0,1,0-.09.18.18,0,0,1,.09,0h.19a.13.13,0,0,1,.09,0,.11.11,0,0,1,0,.09v3a.09.09,0,0,1,0,.08.1.1,0,0,1-.09,0h-.16A.12.12,0,0,1,25.83,31.09Z" transform="translate(0 0)"/><path class="cls-3" d="M32.39,47.7a.13.13,0,0,1-.1,0H32.1a.13.13,0,0,1-.1,0,.18.18,0,0,1,0-.1V46.24a.81.81,0,0,0-.19-.59.77.77,0,0,0-1.06,0,.81.81,0,0,0-.2.59V47.6a.13.13,0,0,1,0,.1.12.12,0,0,1-.1,0h-.19a.11.11,0,0,1-.09,0,.14.14,0,0,1-.05-.1V45.19a.14.14,0,0,1,.05-.1.15.15,0,0,1,.09,0h.19a.15.15,0,0,1,.1,0,.13.13,0,0,1,0,.1v.16a.92.92,0,0,1,.32-.25,1,1,0,0,1,.49-.1,1.24,1.24,0,0,1,.58.14,1,1,0,0,1,.39.4,1.21,1.21,0,0,1,.14.62V47.6A.13.13,0,0,1,32.39,47.7Z" transform="translate(0 0)"/><path class="cls-3" d="M35.53,47.7a.13.13,0,0,1-.1,0h-.19a.13.13,0,0,1-.1,0,.18.18,0,0,1,0-.1V46.24a.81.81,0,0,0-.19-.59.77.77,0,0,0-1.06,0,.81.81,0,0,0-.2.59V47.6a.13.13,0,0,1,0,.1.12.12,0,0,1-.1,0h-.19a.14.14,0,0,1-.1,0,.18.18,0,0,1,0-.1V44.21a.18.18,0,0,1,0-.1.14.14,0,0,1,.1,0h.19a.12.12,0,0,1,.1,0,.13.13,0,0,1,0,.1v1.14A.92.92,0,0,1,34,45.1a1,1,0,0,1,.49-.1,1.24,1.24,0,0,1,.58.14,1,1,0,0,1,.39.4,1.21,1.21,0,0,1,.14.62V47.6A.13.13,0,0,1,35.53,47.7Z" transform="translate(0 0)"/><path class="cls-3" d="M38.66,46.4a1.93,1.93,0,0,1,0,.24,1.3,1.3,0,0,1-.36.84,1.36,1.36,0,0,1-1.73,0,1.3,1.3,0,0,1-.36-.84s0-.12,0-.24,0-.21,0-.25a1.3,1.3,0,0,1,.36-.84,1.16,1.16,0,0,1,.86-.31,1.19,1.19,0,0,1,.87.31,1.3,1.3,0,0,1,.36.84A2,2,0,0,1,38.66,46.4Zm-.7-.75a.69.69,0,0,0-.54-.21.68.68,0,0,0-.53.21.83.83,0,0,0-.22.53s0,.11,0,.22,0,.18,0,.21a.88.88,0,0,0,.22.54.71.71,0,0,0,.53.2.72.72,0,0,0,.54-.2.88.88,0,0,0,.22-.54,1.48,1.48,0,0,0,0-.21,1.77,1.77,0,0,0,0-.22A.83.83,0,0,0,38,45.65Z" transform="translate(0 0)"/><path class="cls-3" d="M41.66,47.7a.13.13,0,0,1-.1,0h-.19a.14.14,0,0,1-.14-.14V46.24a.81.81,0,0,0-.2-.59.66.66,0,0,0-.53-.21.69.69,0,0,0-.53.21.81.81,0,0,0-.19.59V47.6a.18.18,0,0,1,0,.1.13.13,0,0,1-.1,0h-.19a.14.14,0,0,1-.14-.14V45.19a.13.13,0,0,1,0-.1.18.18,0,0,1,.1,0h.19a.14.14,0,0,1,.14.14v.16a.88.88,0,0,1,.31-.25,1,1,0,0,1,.49-.1,1.21,1.21,0,0,1,.58.14.94.94,0,0,1,.39.4,1.21,1.21,0,0,1,.15.62V47.6A.18.18,0,0,1,41.66,47.7Z" transform="translate(0 0)"/><path class="cls-3" d="M44,45.1a.88.88,0,0,1,.31.25v-.16a.14.14,0,0,1,.14-.14h.19a.18.18,0,0,1,.1,0,.13.13,0,0,1,0,.1v2.52a1.16,1.16,0,0,1-.31.86,1.25,1.25,0,0,1-.91.31,1.57,1.57,0,0,1-.65-.12,1.1,1.1,0,0,1-.39-.29.77.77,0,0,1-.14-.36.13.13,0,0,1,0-.1.14.14,0,0,1,.1,0h.16a.17.17,0,0,1,.1,0,.35.35,0,0,1,.07.11.51.51,0,0,0,.2.22.78.78,0,0,0,.46.1c.54,0,.8-.22.8-.66v-.33a.91.91,0,0,1-.8.35,1.14,1.14,0,0,1-.58-.15,1.21,1.21,0,0,1-.42-.42,1.49,1.49,0,0,1-.17-.65v-.34a1.45,1.45,0,0,1,.17-.65,1.09,1.09,0,0,1,.42-.43,1.11,1.11,0,0,1,.58-.15A1,1,0,0,1,44,45.1Zm-1,.56a.92.92,0,0,0-.22.59v.29a.9.9,0,0,0,.22.59.67.67,0,0,0,.53.22.73.73,0,0,0,.54-.21.81.81,0,0,0,.21-.56.77.77,0,0,0,0-.18.87.87,0,0,0,0-.19.81.81,0,0,0-.21-.56.73.73,0,0,0-.54-.21A.7.7,0,0,0,43,45.66Z" transform="translate(0 0)"/><path class="cls-3" d="M47.14,46V46a.48.48,0,0,0-.17-.39.68.68,0,0,0-.44-.14.69.69,0,0,0-.32.07.86.86,0,0,0-.22.21.13.13,0,0,1-.07.06l-.1,0h-.15a.18.18,0,0,1-.1,0,.14.14,0,0,1,0-.1.53.53,0,0,1,.15-.31.93.93,0,0,1,.37-.25,1.24,1.24,0,0,1,1.26.17,1,1,0,0,1,.3.75V47.6a.18.18,0,0,1,0,.1.13.13,0,0,1-.1,0h-.19a.14.14,0,0,1-.14-.14v-.21a.61.61,0,0,1-.35.29,1.31,1.31,0,0,1-.54.11,1.16,1.16,0,0,1-.47-.09.77.77,0,0,1-.32-.26.7.7,0,0,1-.11-.38.69.69,0,0,1,.29-.6,1.64,1.64,0,0,1,.77-.3Zm0,.41-.61.1a1.37,1.37,0,0,0-.52.17.33.33,0,0,0-.19.29.28.28,0,0,0,.12.23.53.53,0,0,0,.36.11.89.89,0,0,0,.61-.21.75.75,0,0,0,.23-.56Z" transform="translate(0 0)"/></svg>