<svg id="Layer_1" data-name="Layer 1" xmlns="http://www.w3.org/2000/svg" viewBox="0 0 100 58.67"><defs><style>.cls-1{fill:#f7931e;}.cls-2{fill:none;}</style></defs><rect width="100" height="58.67"/><path class="cls-1" d="M68.36,265.36a.11.11,0,0,0-.09.1s0,.05,0,.06h0l0,0,0-.06-.07-.12-.14-.24-.28-.49c-.18-.33-.36-.65-.54-1a6.43,6.43,0,0,1-.48-1.06c-.12-.39-.19-.76-.27-1.13-.14-.74-.24-1.48-.39-2.19a8.33,8.33,0,0,0-.27-1,3.09,3.09,0,0,0-.43-.85,4.8,4.8,0,0,0-1.58-1.16,8.91,8.91,0,0,1-1.83-1.26,6,6,0,0,1-1.49-2.07,4.48,4.48,0,0,1-.35-2.48h0l.28,0a18.66,18.66,0,0,0,.14,4.54,14,14,0,0,0,.54,2.21,5.19,5.19,0,0,0,1.06,2,8.61,8.61,0,0,0,1.7,1.48c.63.43,1.29.8,1.95,1.19a3.69,3.69,0,0,1,.5.34,3.35,3.35,0,0,1,.41.44,10.17,10.17,0,0,1,.68.94l.61,1,.29.5.15.25.07.13,0,.06,0,0a.12.12,0,0,0-.08,0A.08.08,0,0,0,68.36,265.36Zm.13.25h-.11a.29.29,0,0,1-.1-.08l0,0,0-.06-.07-.13-.15-.24-.29-.5c-.19-.33-.39-.65-.6-1s-.43-.63-.66-.92a5,5,0,0,0-.38-.41c-.12-.1-.3-.2-.45-.3-.66-.39-1.33-.77-2-1.2a8.84,8.84,0,0,1-1.76-1.53,5.4,5.4,0,0,1-.67-1,5.29,5.29,0,0,1-.25-.54l-.2-.55a14.45,14.45,0,0,1-.54-2.25,18.87,18.87,0,0,1-.15-4.63l.09-.88.2.86h0A27.31,27.31,0,0,0,63.5,253a9.1,9.1,0,0,1,1.64,1.54,9.86,9.86,0,0,1,.75,1,7.57,7.57,0,0,1,.63,1.15,5.5,5.5,0,0,1,.23.61,5,5,0,0,1,.14.62c.07.39.11.78.15,1.15l.2,2.23c0,.37.08.73.15,1.07a6.49,6.49,0,0,0,.32,1c.13.34.27.69.41,1l.22.51.1.26.06.13,0,.06,0,0h0s0,0,0,.08A.18.18,0,0,1,68.49,265.61Z" transform="translate(-54.14 -232.6)"/><path class="cls-1" d="M68.87,266.83h0m3.45,8.63c-.09-1-.15-2.09-.22-3.14,0-.53-.08-1-.17-1.61l0-.22a1.71,1.71,0,0,0-.09-.27c-.07-.15-.14-.29-.21-.41s-.28-.48-.42-.71-.28-.45-.4-.67-.12-.22-.18-.33a.06.06,0,0,1,0,0s0,0,0,0h0s0,0,0,0l-.09-.12c-.12-.2-.25-.43-.37-.65l-.18-.35-.09-.18,0-.08,0-.05v0h0v-.05a.41.41,0,0,0,0-.09.51.51,0,0,0-.36-.2.59.59,0,0,0-.23.07.5.5,0,0,0-.17.19l0,.07h0v.19c0,.07,0,.14,0,.21s0,.28,0,.42-.08.54-.11.83a3,3,0,0,0,.08.86,5.54,5.54,0,0,0,.21.8,5.15,5.15,0,0,0,.71,1.5,2.3,2.3,0,0,0,.68.5,1.65,1.65,0,0,1,.58.49.9.9,0,0,1,.1.35c0,.13,0,.27.05.4l.08.81c0,.54.1,1.08.19,1.62,0,.13.06.27.1.4a.86.86,0,0,0,.07.21l.07.18c.11.25.2.5.29.76.19.5.36,1,.52,1.53l.28-.08h0A22.5,22.5,0,0,1,72.32,275.45Zm-1.68-4a.65.65,0,0,1,.09-.77l.52.79A.43.43,0,0,1,70.64,271.43Z" transform="translate(-54.14 -232.6)"/><path class="cls-1" d="M73.24,279.75s-.45-.36-.66-.14a.62.62,0,0,0,0,.87,2.35,2.35,0,0,0,1.28.65.31.31,0,0,1,0,.61c-.37.08-1-.07-1.09.26s.08.79.49.76a3.46,3.46,0,0,1,.87,0c.16,0,.23.4,0,.43a6.8,6.8,0,0,0-.79,0c-.39.08,0,.51.26.44a4.53,4.53,0,0,1,1,0l.1-3.82a1.08,1.08,0,0,0-.82.22C73.64,280.33,73.24,279.75,73.24,279.75Z" transform="translate(-54.14 -232.6)"/><path class="cls-1" d="M74.7,269.48a2.21,2.21,0,0,1-1.24-.65c-1.35-1.14-2-2.13-1.87-2.95A2.35,2.35,0,0,1,73.33,264l.82-.25,0-.5h-.33l-.42.42-1.18.17-.45.76-1.52.07-.54-1.16-.2-1.22v0a12.19,12.19,0,0,0-.68-5.43c-.5-1.59-1.06-3-1.56-4.29a27.54,27.54,0,0,1-1.35-4,18.63,18.63,0,0,1,.22-6.26,5.53,5.53,0,0,1,3.88-3.33c3-.55,4.15,1,4.2,1.07l.24.31-.39-.08s-2.34-.52-3.34-.05a5.9,5.9,0,0,0-1.94,1.59l-.3.33c-.47.5-1.08,3.7,1,7.14a36.73,36.73,0,0,1,2.68,5.2l.58,1.3a17.44,17.44,0,0,1,1,5.87l1.6-.21-.23,7.8a.45.45,0,0,1-.31.25Zm-1-6.55h.76l-.07,1-1,.3a2,2,0,0,0-1.53,1.67c-.09.71.5,1.62,1.77,2.69.66.56,1,.6,1.11.57a.19.19,0,0,0,.11-.06l.21-7.38-1.59.21v-.16a18,18,0,0,0-1-5.92c-.22-.49-.4-.91-.57-1.31a37.66,37.66,0,0,0-2.67-5.16c-2.16-3.62-1.45-6.93-.93-7.48l.3-.33a6.14,6.14,0,0,1,2-1.66,6.23,6.23,0,0,1,3.06-.07,4.3,4.3,0,0,0-3.58-.64,5.31,5.31,0,0,0-3.66,3.12,19,19,0,0,0-.21,6.13h0a26.79,26.79,0,0,0,1.33,3.93c.5,1.27,1.06,2.72,1.56,4.31a12.58,12.58,0,0,1,.7,5.55l.19,1.15.44.93,1.17,0,.44-.75,1.22-.17Z" transform="translate(-54.14 -232.6)"/><path class="cls-1" d="M74.72,284.71h-.94c-.86,0-1.65-1.62-2.16-3a1.23,1.23,0,0,1,.15-1.32c.12-.17.13-.19,0-.29s-.11-.09-.14-.08c-.23,0-.32,0-1-1.49-1.05-2.34-1.1-6.46-1.1-6.5a3.46,3.46,0,0,0-.55-1.21,4.72,4.72,0,0,1-.75-1.75c-.07-.86-2.27-4.86-3.1-6.24a3.57,3.57,0,0,0-1.26-.92,7.76,7.76,0,0,1-4.11-4.62,25.09,25.09,0,0,1-1-8v-.1l.1,0a2.28,2.28,0,0,1,1.72.17s.11.08.2.15c3.28,2.33,5.37,4.77,6.22,7.24a17.83,17.83,0,0,0,2.69,5.45l-.21.19a17.36,17.36,0,0,1-2.75-5.55c-.83-2.41-2.89-4.8-6.12-7.1l-.21-.15a1.82,1.82,0,0,0-1.36-.14,24.29,24.29,0,0,0,.94,7.81,7.34,7.34,0,0,0,4,4.44,3.73,3.73,0,0,1,1.37,1c.65,1.07,3.06,5.39,3.14,6.37a4.48,4.48,0,0,0,.71,1.62,3.33,3.33,0,0,1,.59,1.36A19.72,19.72,0,0,0,71,278.42a8.55,8.55,0,0,0,.67,1.33c.11,0,.22,0,.38.15s.12.49,0,.67a1,1,0,0,0-.11,1.05c.66,1.76,1.37,2.8,1.89,2.8h.66l.43-15.26h.29Z" transform="translate(-54.14 -232.6)"/><path d="M69.2,268.47c-.37.28.51,2.11,1,2.71s1.11.84,1.48.56Zm1.44,3c-.13-.17-.57-1.32-.36-1.47l1,1.49A.43.43,0,0,1,70.64,271.43Z" transform="translate(-54.14 -232.6)"/><path class="cls-2" d="M74.87,250.22a.44.44,0,0,1-.61,0,.67.67,0,0,1,.09-.77Z" transform="translate(-54.14 -232.6)"/><path class="cls-1" d="M87.83,284.4a.56.56,0,0,1-.4.17h-.77a.56.56,0,0,1-.4-.17.53.53,0,0,1-.16-.39V278.5a3.3,3.3,0,0,0-.78-2.38,3.23,3.23,0,0,0-4.28,0,3.3,3.3,0,0,0-.79,2.38V284a.53.53,0,0,1-.16.39.56.56,0,0,1-.4.17h-.77a.56.56,0,0,1-.4-.17.53.53,0,0,1-.16-.39v-9.73a.53.53,0,0,1,.16-.39.56.56,0,0,1,.4-.17h.77a.56.56,0,0,1,.4.17.53.53,0,0,1,.16.39v.65a3.62,3.62,0,0,1,1.27-1,4.32,4.32,0,0,1,2-.41,4.7,4.7,0,0,1,2.33.57,3.88,3.88,0,0,1,1.6,1.61,5.17,5.17,0,0,1,.57,2.49V284A.53.53,0,0,1,87.83,284.4Z" transform="translate(-54.14 -232.6)"/><path class="cls-1" d="M100.49,284.4a.54.54,0,0,1-.4.17h-.77a.58.58,0,0,1-.4-.17.53.53,0,0,1-.16-.39V278.5a3.34,3.34,0,0,0-.77-2.38,3.25,3.25,0,0,0-4.29,0,3.3,3.3,0,0,0-.78,2.38V284a.54.54,0,0,1-.17.39.54.54,0,0,1-.4.17h-.77a.54.54,0,0,1-.39-.17A.5.5,0,0,1,91,284V270.32a.54.54,0,0,1,.17-.4.53.53,0,0,1,.39-.16h.77a.54.54,0,0,1,.4.16.58.58,0,0,1,.17.4v4.61a3.49,3.49,0,0,1,1.26-1,4.32,4.32,0,0,1,2-.41,4.74,4.74,0,0,1,2.34.57,3.92,3.92,0,0,1,1.59,1.61,5.17,5.17,0,0,1,.58,2.49V284A.54.54,0,0,1,100.49,284.4Z" transform="translate(-54.14 -232.6)"/><path class="cls-1" d="M113.11,279.17c0,.33,0,.65,0,1a5.26,5.26,0,0,1-1.47,3.38,5.39,5.39,0,0,1-6.95,0,5.21,5.21,0,0,1-1.47-3.38c0-.16,0-.48,0-1s0-.85,0-1a5.15,5.15,0,0,1,1.46-3.39,5.45,5.45,0,0,1,7,0,5.15,5.15,0,0,1,1.46,3.39C113.1,278.47,113.11,278.8,113.11,279.17Zm-2.83-3.05a3.29,3.29,0,0,0-4.32,0,3.54,3.54,0,0,0-.88,2.15c0,.17,0,.46,0,.9s0,.7,0,.85a3.54,3.54,0,0,0,.88,2.15,3.28,3.28,0,0,0,4.32,0,3.49,3.49,0,0,0,.89-2.15c0-.31,0-.59,0-.85s0-.57,0-.9A3.49,3.49,0,0,0,110.28,276.12Z" transform="translate(-54.14 -232.6)"/><path class="cls-1" d="M125.19,284.4a.56.56,0,0,1-.4.17H124a.56.56,0,0,1-.4-.17.53.53,0,0,1-.16-.39V278.5a3.3,3.3,0,0,0-.78-2.38,3.23,3.23,0,0,0-4.28,0,3.3,3.3,0,0,0-.78,2.38V284a.54.54,0,0,1-.17.39.56.56,0,0,1-.4.17h-.77a.56.56,0,0,1-.4-.17.53.53,0,0,1-.16-.39v-9.73a.53.53,0,0,1,.16-.39.56.56,0,0,1,.4-.17h.77a.56.56,0,0,1,.4.17.54.54,0,0,1,.17.39v.65a3.49,3.49,0,0,1,1.26-1,4.32,4.32,0,0,1,2-.41,4.7,4.7,0,0,1,2.33.57,3.88,3.88,0,0,1,1.6,1.61,5.17,5.17,0,0,1,.57,2.49V284A.53.53,0,0,1,125.19,284.4Z" transform="translate(-54.14 -232.6)"/><path class="cls-1" d="M134.56,273.92a3.62,3.62,0,0,1,1.27,1v-.65a.53.53,0,0,1,.16-.39.56.56,0,0,1,.4-.17h.77a.56.56,0,0,1,.4.17.53.53,0,0,1,.16.39v10.14a4.71,4.71,0,0,1-1.25,3.48,5,5,0,0,1-3.67,1.26,6.4,6.4,0,0,1-2.63-.48,3.81,3.81,0,0,1-1.57-1.19,2.64,2.64,0,0,1-.55-1.44.45.45,0,0,1,.15-.4.59.59,0,0,1,.41-.16h.62a.62.62,0,0,1,.4.12,1.15,1.15,0,0,1,.29.44,2.29,2.29,0,0,0,.8.9,3.32,3.32,0,0,0,1.87.41c2.16,0,3.24-.89,3.24-2.69v-1.31a3.81,3.81,0,0,1-3.24,1.42,4.54,4.54,0,0,1-2.34-.61,4.44,4.44,0,0,1-1.69-1.72,5.6,5.6,0,0,1-.7-2.62l0-.69,0-.68a5.56,5.56,0,0,1,.7-2.62,4.41,4.41,0,0,1,1.68-1.72,4.53,4.53,0,0,1,2.35-.61A4.32,4.32,0,0,1,134.56,273.92Zm-3.92,2.26a3.72,3.72,0,0,0-.88,2.38l0,.58,0,.59a3.72,3.72,0,0,0,.88,2.38,2.81,2.81,0,0,0,2.16.87,2.88,2.88,0,0,0,2.15-.82,3.34,3.34,0,0,0,.88-2.26c0-.14,0-.39,0-.76s0-.61,0-.75a3.33,3.33,0,0,0-.88-2.27,2.91,2.91,0,0,0-2.15-.81A2.81,2.81,0,0,0,130.64,276.18Z" transform="translate(-54.14 -232.6)"/><path class="cls-1" d="M147.3,277.71v-.28a1.92,1.92,0,0,0-.68-1.57,2.69,2.69,0,0,0-1.76-.55,2.55,2.55,0,0,0-1.31.28,3.28,3.28,0,0,0-.88.84.79.79,0,0,1-.27.23,1.09,1.09,0,0,1-.4.06h-.62a.57.57,0,0,1-.41-.16.48.48,0,0,1-.16-.4,2.18,2.18,0,0,1,.62-1.24,4.13,4.13,0,0,1,1.47-1,4.77,4.77,0,0,1,2-.4A4.48,4.48,0,0,1,148,274.6a3.89,3.89,0,0,1,1.2,3V284a.54.54,0,0,1-.17.39.54.54,0,0,1-.4.17h-.77a.54.54,0,0,1-.39-.17.5.5,0,0,1-.17-.39v-.86a2.44,2.44,0,0,1-1.42,1.19,5.8,5.8,0,0,1-2.17.44,4.45,4.45,0,0,1-1.9-.39,3.12,3.12,0,0,1-1.28-1.05,2.65,2.65,0,0,1-.45-1.5,2.92,2.92,0,0,1,1.17-2.46,6.9,6.9,0,0,1,3.11-1.2Zm0,1.66-2.46.4a5.68,5.68,0,0,0-2.11.68,1.36,1.36,0,0,0-.75,1.18,1.24,1.24,0,0,0,.48.94,2.23,2.23,0,0,0,1.46.41,3.49,3.49,0,0,0,2.44-.85,2.87,2.87,0,0,0,.94-2.23Z" transform="translate(-54.14 -232.6)"/></svg>