<svg id="Layer_1" data-name="Layer 1" xmlns="http://www.w3.org/2000/svg" viewBox="0 0 50 29.34"><defs><style>.cls-1{fill:#f7931e;}.cls-2{fill:none;}</style></defs><rect width="50" height="29.34"/><path class="cls-1" d="M103.15,267.53s0,0,0,.06v0h0v0l0,0,0-.06-.07-.12-.14-.24-.27-.5a3.25,3.25,0,0,1-.24-.53c-.06-.19-.1-.38-.14-.56-.07-.38-.12-.74-.19-1.1a4.42,4.42,0,0,0-.14-.52,1.28,1.28,0,0,0-.21-.42,2.25,2.25,0,0,0-.79-.58,4.29,4.29,0,0,1-.91-.64,3,3,0,0,1-.75-1A2.29,2.29,0,0,1,99,260h.14a9.59,9.59,0,0,0,.08,2.27,6.89,6.89,0,0,0,.26,1.11,2.83,2.83,0,0,0,.53,1,5,5,0,0,0,.85.74c.32.21.65.4,1,.59l.25.17a1.37,1.37,0,0,1,.2.22,3.72,3.72,0,0,1,.34.47c.11.16.21.33.31.49l.15.25.07.13,0,.06,0,0h0l0,0Zm.07.13h-.06l0,0,0,0v0l0-.06-.07-.13-.14-.24c-.1-.17-.2-.33-.31-.49a4.84,4.84,0,0,0-.33-.46L102,266a2.3,2.3,0,0,0-.23-.15c-.33-.2-.67-.39-1-.6a4.59,4.59,0,0,1-.88-.77,3.14,3.14,0,0,1-.33-.48c0-.09-.09-.18-.13-.27l-.1-.28a7.15,7.15,0,0,1-.27-1.13A9.38,9.38,0,0,1,99,260l0-.44.1.43h0a13.59,13.59,0,0,0,1.56,1.36,4.57,4.57,0,0,1,.82.77,5,5,0,0,1,.38.5,3.15,3.15,0,0,1,.31.57,2.85,2.85,0,0,1,.12.31c0,.1.05.2.07.3s.06.39.08.58l.1,1.12a3.07,3.07,0,0,0,.07.53,3,3,0,0,0,.16.51,5.49,5.49,0,0,0,.21.51l.1.26.06.13,0,.06,0,0v0h0v0A.09.09,0,0,1,103.22,267.66Z" transform="translate(-96.04 -251.16)"/><path class="cls-1" d="M103.41,268.27h0m1.72,4.31c0-.52-.07-1-.11-1.57a7.74,7.74,0,0,0-.08-.8l0-.12a.69.69,0,0,0,0-.13,1.24,1.24,0,0,0-.1-.2l-.21-.36-.2-.33-.09-.17v0h0s0,0,0,0l0-.06c-.06-.09-.13-.21-.19-.32l-.09-.17,0-.09,0-.05v0h0v0l0,0a.26.26,0,0,0-.18-.1.19.19,0,0,0-.11,0,.26.26,0,0,0-.09.09v0h0v.1a.34.34,0,0,1,0,.1,1.49,1.49,0,0,1,0,.21c0,.14,0,.27,0,.42a1.53,1.53,0,0,0,0,.43c0,.13.06.27.1.4a2.73,2.73,0,0,0,.36.75,1.15,1.15,0,0,0,.34.25.87.87,0,0,1,.29.24.48.48,0,0,1,.05.18,1.23,1.23,0,0,1,0,.2l0,.4c0,.27.05.54.1.81a1.17,1.17,0,0,0,0,.2.29.29,0,0,0,0,.1l0,.1.15.37c.09.26.17.51.25.77l.14,0h0A13.13,13.13,0,0,1,105.13,272.58Zm-.84-2a.34.34,0,0,1,0-.38l.26.39A.23.23,0,0,1,104.29,270.57Z" transform="translate(-96.04 -251.16)"/><path class="cls-1" d="M105.59,274.73s-.22-.18-.33-.07a.31.31,0,0,0,0,.43,1.13,1.13,0,0,0,.64.33.16.16,0,0,1,0,.31c-.18,0-.52,0-.54.13s0,.39.25.38a1.48,1.48,0,0,1,.43,0c.08,0,.11.19,0,.21s-.2,0-.4,0,0,.26.13.22a2.1,2.1,0,0,1,.51,0l0-1.9a.52.52,0,0,0-.41.11C105.79,275,105.59,274.73,105.59,274.73Z" transform="translate(-96.04 -251.16)"/><path class="cls-1" d="M106.32,269.59a1.05,1.05,0,0,1-.61-.32c-.68-.57-1-1.06-.94-1.47a1.17,1.17,0,0,1,.87-1l.41-.12,0-.25h-.17l-.21.21-.59.08-.22.38-.76,0-.27-.57-.1-.62h0a6.21,6.21,0,0,0-.34-2.72c-.25-.79-.53-1.51-.78-2.14a12.24,12.24,0,0,1-.67-2,9.06,9.06,0,0,1,.11-3.13,2.72,2.72,0,0,1,1.94-1.66,2,2,0,0,1,2.09.53l.12.16L106,255a3.8,3.8,0,0,0-1.67,0,2.91,2.91,0,0,0-1,.8l-.15.16a3.92,3.92,0,0,0,.48,3.57,19,19,0,0,1,1.35,2.6c.08.2.17.41.28.65a8.36,8.36,0,0,1,.51,2.94l.8-.11-.11,3.9a.24.24,0,0,1-.15.13Zm-.48-3.27h.38l0,.51-.51.15a1,1,0,0,0-.77.83c0,.36.25.82.89,1.35.33.28.49.3.56.29l0,0,.1-3.69-.79.1v-.08a8.87,8.87,0,0,0-.5-3c-.11-.24-.2-.46-.29-.65a17.79,17.79,0,0,0-1.33-2.59,4,4,0,0,1-.47-3.74l.15-.16a2.18,2.18,0,0,1,2.54-.86,2.07,2.07,0,0,0-1.79-.32,2.61,2.61,0,0,0-1.82,1.56,9.06,9.06,0,0,0-.11,3.06h0a13.34,13.34,0,0,0,.66,2c.25.63.54,1.35.78,2.15a6.42,6.42,0,0,1,.36,2.78l.09.57.22.47.58,0,.22-.37.61-.09Z" transform="translate(-96.04 -251.16)"/><path class="cls-1" d="M106.33,277.21h-.46c-.44,0-.83-.81-1.09-1.49a.61.61,0,0,1,.08-.66c.06-.09.06-.1,0-.15s-.05,0-.07,0-.16,0-.49-.74a10.41,10.41,0,0,1-.54-3.26,1.9,1.9,0,0,0-.28-.6,2.31,2.31,0,0,1-.38-.87,17.46,17.46,0,0,0-1.54-3.12,2,2,0,0,0-.64-.47,3.86,3.86,0,0,1-2.05-2.3,12.14,12.14,0,0,1-.47-4v-.05l0,0a1.15,1.15,0,0,1,.86.09l.1.07a8,8,0,0,1,3.11,3.62,8.72,8.72,0,0,0,1.35,2.73l-.11.09a8.74,8.74,0,0,1-1.38-2.77,7.74,7.74,0,0,0-3.06-3.55l-.1-.08a.94.94,0,0,0-.68-.07,12.16,12.16,0,0,0,.47,3.91,3.69,3.69,0,0,0,2,2.22,1.84,1.84,0,0,1,.69.51,18.33,18.33,0,0,1,1.57,3.18,2.56,2.56,0,0,0,.35.82,1.69,1.69,0,0,1,.3.67,9.91,9.91,0,0,0,.54,3.2,4.39,4.39,0,0,0,.34.66.2.2,0,0,1,.19.08c.13.14.06.24,0,.33a.49.49,0,0,0,0,.53c.33.87.68,1.4,1,1.4h.32l.22-7.64h.14Z" transform="translate(-96.04 -251.16)"/><path d="M103.58,269.09c-.19.14.25,1.06.47,1.35s.56.43.74.28Zm.71,1.48c-.06-.09-.28-.66-.18-.74l.49.75A.23.23,0,0,1,104.29,270.57Z" transform="translate(-96.04 -251.16)"/><path class="cls-2" d="M106.41,260a.22.22,0,0,1-.31,0,.34.34,0,0,1,.05-.38Z" transform="translate(-96.04 -251.16)"/><path class="cls-1" d="M112.69,277.21h-.39a.35.35,0,0,1-.25-.1.33.33,0,0,1-.1-.25v-2.75a1.57,1.57,0,0,0-.37-1.14,1.32,1.32,0,0,0-1-.39,1.35,1.35,0,0,0-1,.39,1.61,1.61,0,0,0-.37,1.14v2.75a.35.35,0,0,1-.1.25.33.33,0,0,1-.25.1h-.39a.35.35,0,0,1-.25-.1.33.33,0,0,1-.1-.25V272a.33.33,0,0,1,.1-.25.36.36,0,0,1,.25-.11h.39a.34.34,0,0,1,.25.11.33.33,0,0,1,.1.25v.13a2.11,2.11,0,0,1,.53-.38,2.26,2.26,0,0,1,1-.21,2.48,2.48,0,0,1,1.2.29,2.1,2.1,0,0,1,.83.84A2.72,2.72,0,0,1,113,274v2.91a.34.34,0,0,1-.35.35Zm-2.13-4.77a1.47,1.47,0,0,1,1.13.43,1.73,1.73,0,0,1,.4,1.24v2.75a.19.19,0,0,0,.07.15.2.2,0,0,0,.14.06h.39a.22.22,0,0,0,.15-.06h0a.22.22,0,0,0,.06-.15V274a2.54,2.54,0,0,0-.28-1.21,1.87,1.87,0,0,0-.77-.78,2.34,2.34,0,0,0-1.13-.28,2.13,2.13,0,0,0-1,.2,1.64,1.64,0,0,0-.6.49l-.13.17V272a.2.2,0,0,0-.06-.15.22.22,0,0,0-.15-.06h-.39a.2.2,0,0,0-.14.06.18.18,0,0,0-.07.15v4.86a.19.19,0,0,0,.07.15.2.2,0,0,0,.14.06h.39a.21.21,0,0,0,.21-.21v-2.75a1.73,1.73,0,0,1,.41-1.24A1.46,1.46,0,0,1,110.56,272.44Z" transform="translate(-96.04 -251.16)"/><path class="cls-1" d="M119,277.21h-.39a.35.35,0,0,1-.25-.1.37.37,0,0,1-.1-.25v-2.75a1.57,1.57,0,0,0-.37-1.14,1.52,1.52,0,0,0-2,0,1.57,1.57,0,0,0-.38,1.14v2.75a.35.35,0,0,1-.1.25.33.33,0,0,1-.25.1h-.39a.31.31,0,0,1-.24-.1.34.34,0,0,1-.11-.25V270a.34.34,0,0,1,.11-.25.32.32,0,0,1,.24-.11h.39a.34.34,0,0,1,.25.11.33.33,0,0,1,.1.25v2.11a2.11,2.11,0,0,1,.53-.38,2.26,2.26,0,0,1,1-.21,2.48,2.48,0,0,1,1.2.29,2.1,2.1,0,0,1,.83.84,2.72,2.72,0,0,1,.29,1.28v2.91a.35.35,0,0,1-.1.25A.33.33,0,0,1,119,277.21Zm-2.13-4.77a1.47,1.47,0,0,1,1.13.43,1.73,1.73,0,0,1,.4,1.24v2.75a.23.23,0,0,0,.07.15.2.2,0,0,0,.14.06H119a.2.2,0,0,0,.15-.06h0a.22.22,0,0,0,.06-.15V274a2.43,2.43,0,0,0-.28-1.21,1.87,1.87,0,0,0-.77-.78,2.34,2.34,0,0,0-1.13-.28,2.06,2.06,0,0,0-1,.2,1.67,1.67,0,0,0-.61.49l-.13.17V270a.21.21,0,0,0-.21-.21h-.39a.2.2,0,0,0-.14.06.2.2,0,0,0-.06.15v6.84a.22.22,0,0,0,.06.15.2.2,0,0,0,.14.06h.39a.2.2,0,0,0,.15-.06.22.22,0,0,0,.06-.15v-2.75a1.73,1.73,0,0,1,.41-1.24A1.46,1.46,0,0,1,116.89,272.44Z" transform="translate(-96.04 -251.16)"/><path class="cls-1" d="M123,277.32a2.46,2.46,0,0,1-1.79-.65,2.74,2.74,0,0,1-.76-1.74c0-.08,0-.24,0-.49s0-.43,0-.51a2.66,2.66,0,0,1,.75-1.74,2.8,2.8,0,0,1,3.59,0,2.66,2.66,0,0,1,.75,1.74c0,.16,0,.33,0,.51s0,.33,0,.49a2.69,2.69,0,0,1-.76,1.74A2.45,2.45,0,0,1,123,277.32Zm0-5.64a2.34,2.34,0,0,0-1.7.62,2.48,2.48,0,0,0-.7,1.64c0,.08,0,.24,0,.5s0,.4,0,.47a2.54,2.54,0,0,0,.71,1.65,2.63,2.63,0,0,0,3.37,0,2.6,2.6,0,0,0,.72-1.65c0-.15,0-.31,0-.47s0-.35,0-.5a2.54,2.54,0,0,0-.71-1.64A2.33,2.33,0,0,0,123,271.68Zm0,4.74a1.48,1.48,0,0,1-1.14-.43,1.84,1.84,0,0,1-.46-1.12c0-.08,0-.22,0-.43s0-.37,0-.46a1.81,1.81,0,0,1,.46-1.11,1.71,1.71,0,0,1,2.27,0h0a1.81,1.81,0,0,1,.46,1.11c0,.17,0,.33,0,.46s0,.28,0,.43a1.84,1.84,0,0,1-.46,1.12A1.47,1.47,0,0,1,123,276.42Zm0-3.84a1.33,1.33,0,0,0-1,.39,1.74,1.74,0,0,0-.43,1c0,.08,0,.23,0,.44s0,.35,0,.42a1.76,1.76,0,0,0,.43,1,1.54,1.54,0,0,0,2,0,1.7,1.7,0,0,0,.43-1c0-.15,0-.29,0-.42s0-.28,0-.44a1.68,1.68,0,0,0-.43-1A1.32,1.32,0,0,0,123,272.58Z" transform="translate(-96.04 -251.16)"/><path class="cls-1" d="M131.37,277.21H131a.35.35,0,0,1-.25-.1.33.33,0,0,1-.1-.25v-2.75a1.57,1.57,0,0,0-.37-1.14,1.32,1.32,0,0,0-1-.39,1.35,1.35,0,0,0-1,.39,1.61,1.61,0,0,0-.37,1.14v2.75a.34.34,0,0,1-.35.35h-.39a.35.35,0,0,1-.25-.1.37.37,0,0,1-.1-.25V272a.37.37,0,0,1,.1-.25.36.36,0,0,1,.25-.11h.39a.34.34,0,0,1,.25.11.33.33,0,0,1,.1.25v.13a2.11,2.11,0,0,1,.53-.38,2.26,2.26,0,0,1,1-.21,2.48,2.48,0,0,1,1.2.29,2.1,2.1,0,0,1,.83.84,2.72,2.72,0,0,1,.29,1.28v2.91a.35.35,0,0,1-.1.25A.33.33,0,0,1,131.37,277.21Zm-2.13-4.77a1.47,1.47,0,0,1,1.13.43,1.73,1.73,0,0,1,.4,1.24v2.75a.19.19,0,0,0,.07.15.2.2,0,0,0,.14.06h.39a.21.21,0,0,0,.21-.21V274a2.43,2.43,0,0,0-.28-1.21,1.87,1.87,0,0,0-.77-.78,2.34,2.34,0,0,0-1.13-.28,2.06,2.06,0,0,0-1,.2,1.59,1.59,0,0,0-.61.49l-.13.17V272a.2.2,0,0,0-.06-.15.22.22,0,0,0-.15-.06h-.39a.2.2,0,0,0-.14.06.21.21,0,0,0-.07.15v4.86a.23.23,0,0,0,.07.15.2.2,0,0,0,.14.06h.39a.21.21,0,0,0,.21-.21v-2.75a1.73,1.73,0,0,1,.41-1.24A1.46,1.46,0,0,1,129.24,272.44Z" transform="translate(-96.04 -251.16)"/><path class="cls-1" d="M135.37,279.51a3.34,3.34,0,0,1-1.34-.25,2,2,0,0,1-.82-.62,1.53,1.53,0,0,1-.29-.75.35.35,0,0,1,.1-.26.37.37,0,0,1,.26-.1h.31a.36.36,0,0,1,.25.08.83.83,0,0,1,.16.24,1.1,1.1,0,0,0,.37.42,1.6,1.6,0,0,0,.9.2c1,0,1.54-.42,1.54-1.28v-.46a2,2,0,0,1-1.54.59,2.38,2.38,0,0,1-1.21-.32,2.3,2.3,0,0,1-.87-.88,2.87,2.87,0,0,1-.36-1.34v-.7a2.87,2.87,0,0,1,.36-1.34,2.4,2.4,0,0,1,.87-.89,2.32,2.32,0,0,1,1.21-.31,2.26,2.26,0,0,1,1,.21h0a1.89,1.89,0,0,1,.52.38V272a.38.38,0,0,1,.36-.36h.38a.38.38,0,0,1,.36.36v5.07a2.42,2.42,0,0,1-.65,1.78A2.53,2.53,0,0,1,135.37,279.51Zm-2.09-1.84a.21.21,0,0,0-.16.07.14.14,0,0,0-.05.13,1.28,1.28,0,0,0,.26.69,1.94,1.94,0,0,0,.76.57,3.22,3.22,0,0,0,1.28.23,2.4,2.4,0,0,0,1.79-.61,2.29,2.29,0,0,0,.6-1.68V272a.21.21,0,0,0-.21-.21h-.38a.21.21,0,0,0-.21.21v.54l-.13-.17a1.67,1.67,0,0,0-.61-.49h0a2.06,2.06,0,0,0-.95-.2,2.22,2.22,0,0,0-2,1.13,3,3,0,0,0-.34,1.28v.68a3,3,0,0,0,.34,1.28,2.25,2.25,0,0,0,.82.83,2.3,2.3,0,0,0,1.14.29,1.83,1.83,0,0,0,1.56-.68l.13-.17v.87c0,.94-.57,1.42-1.69,1.42a1.69,1.69,0,0,1-1-.22,1.16,1.16,0,0,1-.42-.48.51.51,0,0,0-.13-.19.21.21,0,0,0-.15-.05Zm2.09-1.25a1.48,1.48,0,0,1-1.13-.46,1.93,1.93,0,0,1-.46-1.24v-.59a1.92,1.92,0,0,1,.46-1.23,1.45,1.45,0,0,1,1.13-.46,1.53,1.53,0,0,1,1.13.42,1.76,1.76,0,0,1,.46,1.19,7.22,7.22,0,0,1,0,.76,1.75,1.75,0,0,1-.46,1.18A1.54,1.54,0,0,1,135.37,276.42Zm0-3.84a1.31,1.31,0,0,0-1,.42h0a1.76,1.76,0,0,0-.43,1.14v.58a1.78,1.78,0,0,0,.43,1.14,1.31,1.31,0,0,0,1,.42,1.39,1.39,0,0,0,1-.4,1.6,1.6,0,0,0,.41-1.08,6.85,6.85,0,0,0,0-.74,1.59,1.59,0,0,0-.41-1.09A1.39,1.39,0,0,0,135.37,272.58Z" transform="translate(-96.04 -251.16)"/><path class="cls-1" d="M140.83,277.32a2.38,2.38,0,0,1-1-.2,1.67,1.67,0,0,1-.67-.55,1.4,1.4,0,0,1-.24-.8,1.54,1.54,0,0,1,.61-1.28,3.53,3.53,0,0,1,1.59-.61l1.41-.23v-.08a.88.88,0,0,0-.31-.73,1.3,1.3,0,0,0-.84-.26,1.26,1.26,0,0,0-.61.13,1.47,1.47,0,0,0-.42.41.41.41,0,0,1-.17.13.5.5,0,0,1-.23,0h-.31a.35.35,0,0,1-.25-.1.29.29,0,0,1-.1-.26,1.16,1.16,0,0,1,.32-.66,2.29,2.29,0,0,1,.76-.53,2.67,2.67,0,0,1,1-.2,2.33,2.33,0,0,1,1.62.56,2,2,0,0,1,.63,1.58v3.18a.36.36,0,0,1-.11.25.33.33,0,0,1-.25.1h-.39a.31.31,0,0,1-.24-.1.34.34,0,0,1-.11-.25v-.18a1.4,1.4,0,0,1-.61.41A2.94,2.94,0,0,1,140.83,277.32Zm.57-4.88a1.46,1.46,0,0,1,.93.29,1,1,0,0,1,.37.84v.2l-1.54.25a3.34,3.34,0,0,0-1.52.59,1.36,1.36,0,0,0-.55,1.16,1.21,1.21,0,0,0,.21.71,1.55,1.55,0,0,0,.61.51,2.25,2.25,0,0,0,.92.18,2.86,2.86,0,0,0,1.06-.21,1.2,1.2,0,0,0,.67-.56l.14-.31v.77a.22.22,0,0,0,.06.15.2.2,0,0,0,.14.06h.39a.2.2,0,0,0,.15-.06.22.22,0,0,0,.06-.15v-3.18a1.86,1.86,0,0,0-.58-1.47,2.16,2.16,0,0,0-1.52-.53,2.38,2.38,0,0,0-1,.2,2.07,2.07,0,0,0-.71.48,1.1,1.1,0,0,0-.29.58.15.15,0,0,0,.06.14.18.18,0,0,0,.15.07H140a.37.37,0,0,0,.17,0,.31.31,0,0,0,.11-.09,1.72,1.72,0,0,1,.46-.44A1.36,1.36,0,0,1,141.4,272.44Zm-.47,4a1.14,1.14,0,0,1-.77-.23.67.67,0,0,1-.27-.52.76.76,0,0,1,.41-.65,2.91,2.91,0,0,1,1.08-.35l1.32-.21v.34a1.5,1.5,0,0,1-.5,1.17A1.79,1.79,0,0,1,140.93,276.42Zm1.62-1.79-1.15.18a2.77,2.77,0,0,0-1,.33.62.62,0,0,0-.34.53.54.54,0,0,0,.21.41,1,1,0,0,0,.68.2,1.71,1.71,0,0,0,1.18-.41,1.4,1.4,0,0,0,.44-1.07Z" transform="translate(-96.04 -251.16)"/></svg>